<svg width="259" height="327" viewBox="0 0 259 327" fill="none" xmlns="http://www.w3.org/2000/svg">
<g clip-path="url(#clip0_21_33)">
<path d="M245.213 231.195C244.245 248.944 233.91 264.77 219.47 277.888C205.061 290.978 186.968 300.985 171.487 307.067C148.226 316.204 118.072 317.19 91.4046 309.909C64.6965 302.616 42.3131 287.292 33.4043 264.614C27.8589 250.497 20.9213 230.12 16.6859 209.228C12.7834 189.978 11.2862 170.804 14.8804 155.748C18.8971 157.388 23.0941 159.433 27.6251 161.642C48.9215 172.021 77.5976 185.997 129.623 178.357C151.647 175.123 167.06 171.085 181.189 163.002C193.997 155.676 205.497 145.167 219.902 129.515C224.401 141.186 230.429 157.553 235.491 174.652C241.533 195.065 246.041 216.017 245.213 231.195Z" fill="#C8B3B3" stroke="#C8B3B3" stroke-width="8"/>
<path d="M119.496 223C102.126 234.577 77.5766 230.353 63.9999 223.626" stroke="#464646" stroke-width="6" stroke-linecap="round"/>
<path d="M201.559 193.264C193.221 210.755 163.456 220.779 150.809 215.728" stroke="#464646" stroke-width="6" stroke-linecap="round"/>
<path d="M133.463 183.853C114.605 187.532 92.1262 184.765 56.5989 176.683C57.7259 172.201 58.808 167.877 59.8558 163.69C73.2852 110.028 81.0974 78.811 105.998 24.463C142.321 74.9687 162.152 104.598 189.52 150.669C167.825 170.166 152.074 180.223 133.463 183.853Z" fill="#D67070" stroke="#D67070" stroke-width="11"/>
<circle cx="154.5" cy="266.5" r="7.5" fill="#C8F7D0"/>
<path d="M144.385 272.642L124.938 260.841C136.832 251.092 143.222 250.536 157.628 253.94L144.385 272.642Z" fill="#464646"/>
<circle cx="156.581" cy="146.751" r="15.5" transform="rotate(7.20678 156.581 146.751)" fill="#93A3F9"/>
<circle cx="156.581" cy="146.751" r="15.5" transform="rotate(7.20678 156.581 146.751)" fill="#93A3F9"/>
<circle cx="156.581" cy="146.751" r="15.5" transform="rotate(7.20678 156.581 146.751)" fill="#93A3F9"/>
<circle cx="156.581" cy="146.751" r="15.5" transform="rotate(7.20678 156.581 146.751)" fill="#93A3F9"/>
<path d="M171.28 146.09C170.206 154.583 163.129 163.203 154.636 162.129C146.143 161.055 139.445 154.725 140.519 146.232C141.593 137.739 150.032 130.3 158.525 131.374C167.018 132.448 172.354 137.597 171.28 146.09Z" fill="#93A3F9"/>
<path d="M107.563 119.89C106.489 128.382 98.4262 132.846 89.9334 131.772C81.4406 130.698 75.6773 120.958 76.7512 112.466C77.8252 103.973 85.3296 99.9428 93.8224 101.017C102.315 102.091 108.637 111.397 107.563 119.89Z" fill="#F993D0"/>
<path d="M140.451 63.0666C139.378 71.5594 133.606 77.8245 125.114 76.7506C116.621 75.6767 110.607 67.9214 111.681 59.4286C112.754 50.9358 119.518 44.7962 128.01 45.8701C135.81 55.928 135.81 55.928 140.451 63.0666Z" fill="#F9EE93"/>
<path d="M210.837 78.2782C210.541 78.2389 210.514 77.3099 210.756 75.4912C211.413 70.5426 212.143 68.1217 212.946 68.2284L233.185 70.9155C233.481 70.9548 234.013 71.9723 234.781 73.9681C235.549 75.9639 235.916 77.0887 235.882 77.3424C235.854 77.5539 235.816 77.678 235.768 77.7147L221.405 91.5607L232.545 92.265C233.222 92.3549 233.361 93.9013 232.962 96.9043C232.811 98.0463 232.531 99.3434 232.123 100.796C231.715 102.248 231.257 102.94 230.75 102.873L210.448 100.177C209.813 100.093 209.192 98.9348 208.585 96.7021C207.978 94.4694 207.702 93.1415 207.758 92.7186C207.82 92.2533 207.899 91.984 207.994 91.9107L221.991 79.3717L210.837 78.2782Z" fill="#D67070"/>
<path d="M179.872 28.9283C179.464 29.1136 178.691 27.9533 177.553 25.4475C174.457 18.6294 173.463 14.969 174.57 14.4663L202.454 1.80517C202.862 1.61995 204.348 2.49185 206.911 4.42086C209.473 6.34988 210.834 7.48922 210.993 7.83886C211.125 8.13023 211.175 8.31828 211.144 8.40302L203.87 37.4312L218.604 29.4762C219.536 29.0528 220.941 30.9099 222.82 35.0474C223.534 36.6208 224.209 38.4934 224.844 40.6653C225.479 42.8372 225.446 44.0819 224.747 44.3994L196.775 57.1002C195.901 57.4971 194.191 56.5165 191.644 54.1585C189.097 51.8004 187.692 50.3301 187.427 49.7473C187.136 49.1063 187.022 48.7011 187.086 48.5316L194.931 21.4581L179.872 28.9283Z" fill="#D67070"/>
<ellipse cx="157" cy="263.5" rx="3" ry="2.5" fill="white"/>
</g>
<defs>
<clipPath id="clip0_21_33">
<rect width="259" height="327" fill="white"/>
</clipPath>
</defs>
</svg>
