<svg width="259" height="327" viewBox="0 0 259 327" fill="none" xmlns="http://www.w3.org/2000/svg">
<g clip-path="url(#clip0_21_33)">
<path d="M245.213 231.195C244.245 248.944 233.91 264.77 219.47 277.888C205.061 290.978 186.968 300.985 171.487 307.067C148.226 316.204 118.072 317.19 91.4046 309.909C64.6965 302.616 42.3131 287.292 33.4043 264.614C27.8589 250.497 20.9213 230.12 16.6859 209.228C12.7834 189.978 11.2862 170.804 14.8804 155.748C18.8971 157.388 23.0941 159.433 27.6251 161.642C48.9215 172.021 77.5976 185.997 129.623 178.357C151.647 175.123 167.06 171.085 181.189 163.002C193.997 155.676 205.497 145.167 219.902 129.515C224.401 141.186 230.429 157.553 235.491 174.652C241.533 195.065 246.041 216.017 245.213 231.195Z" fill="#C8B3B3" stroke="#C8B3B3" stroke-width="8"/>
<path d="M58.4305 228.656C75.3024 216.364 100.007 219.559 113.852 225.714" stroke="#464646" stroke-width="6" stroke-linecap="round"/>
<path d="M152.108 219.445C163.138 203.513 194.124 198.381 205.799 205.39" stroke="#464646" stroke-width="6" stroke-linecap="round"/>
<path d="M133.463 183.853C114.605 187.532 92.1262 184.765 56.5989 176.683C57.7259 172.201 58.808 167.877 59.8558 163.69C73.2852 110.028 81.0974 78.811 105.998 24.463C142.321 74.9687 162.152 104.598 189.52 150.669C167.825 170.166 152.074 180.223 133.463 183.853Z" fill="#D67070" stroke="#D67070" stroke-width="11"/>
<path d="M144.385 272.642L124.938 260.841C136.832 251.092 143.222 250.536 157.628 253.94L144.385 272.642Z" fill="#464646"/>
<circle cx="156.581" cy="146.751" r="15.5" transform="rotate(7.20678 156.581 146.751)" fill="#93A3F9"/>
<circle cx="156.581" cy="146.751" r="15.5" transform="rotate(7.20678 156.581 146.751)" fill="#93A3F9"/>
<circle cx="156.581" cy="146.751" r="15.5" transform="rotate(7.20678 156.581 146.751)" fill="#93A3F9"/>
<circle cx="156.581" cy="146.751" r="15.5" transform="rotate(7.20678 156.581 146.751)" fill="#93A3F9"/>
<path d="M171.28 146.09C170.206 154.583 163.129 163.203 154.636 162.129C146.143 161.055 139.445 154.725 140.519 146.232C141.593 137.739 150.032 130.3 158.525 131.374C167.018 132.448 172.354 137.597 171.28 146.09Z" fill="#93A3F9"/>
<path d="M107.563 119.89C106.489 128.382 98.4262 132.846 89.9334 131.772C81.4406 130.698 75.6773 120.958 76.7512 112.466C77.8252 103.973 85.3296 99.9428 93.8224 101.017C102.315 102.091 108.637 111.397 107.563 119.89Z" fill="#F993D0"/>
<path d="M140.451 63.0666C139.378 71.5594 133.606 77.8245 125.114 76.7506C116.621 75.6767 110.607 67.9214 111.681 59.4286C112.754 50.9358 119.518 44.7962 128.01 45.8701C135.81 55.928 135.81 55.928 140.451 63.0666Z" fill="#F9EE93"/>
</g>
<defs>
<clipPath id="clip0_21_33">
<rect width="259" height="327" fill="white"/>
</clipPath>
</defs>
</svg>
